Coordinates
version=1
nRows=43
nColumns=12
inDegrees=yes

Units are S.I. units (second, meters, Newtons, ...)
Angles are in degrees

endheader
time	SC_y	SC_z	SC_x	AC_y	AC_z	AC_x	GH_y	GH_z	GH_yy	EL_x	PS_y
       0.0              -30.01          31.39          84.65          62.18          1.804          11.21         -11.26          27.61         -129.3          80.44          69.62
   0.04452              -30.01          31.39          84.65          62.18          1.802          11.21         -11.28          27.61         -129.3          80.45          69.63
   0.08903              -30.01          31.39          84.65          62.18          1.799          11.21          -11.3          27.61         -129.2          80.45          69.64
    0.1335               -30.0          31.39          84.65          62.18          1.797          11.21         -11.32          27.61         -129.2          80.46          69.66
    0.1781               -30.0          31.39          84.65          62.18          1.794          11.21         -11.34          27.61         -129.2          80.47          69.67
    0.2226               -30.0          31.39          84.65          62.18          1.792          11.21         -11.36          27.61         -129.2          80.47          69.68
    0.2671              -29.99          31.39          84.64          62.18          1.789          11.21         -11.39          27.62         -129.2          80.48           69.7
    0.3116              -29.99          31.39          84.64          62.18          1.786          11.21         -11.41          27.62         -129.1          80.49          69.71
    0.3561              -29.99          31.39          84.64          62.18          1.782          11.21         -11.44          27.62         -129.1           80.5          69.73
    0.4006              -29.98          31.39          84.64          62.19          1.779          11.21         -11.47          27.62         -129.1          80.51          69.74
    0.4452              -29.98          31.39          84.64          62.19          1.775          11.21          -11.5          27.63         -129.1          80.51          69.76
    0.4897              -29.97          31.39          84.64          62.19          1.771          11.21         -11.54          27.63         -129.0          80.52          69.78
    0.5342              -29.97          31.39          84.64          62.19          1.766          11.22         -11.57          27.63         -129.0          80.54           69.8
    0.5787              -29.96          31.39          84.63          62.19          1.762          11.22         -11.61          27.63         -129.0          80.55          69.83
    0.6232              -29.96          31.39          84.63          62.19          1.756          11.22         -11.66          27.64         -128.9          80.56          69.85
    0.6677              -29.95           31.4          84.63          62.19          1.751          11.22          -11.7          27.64         -128.9          80.57          69.88
    0.7123              -29.95           31.4          84.63          62.19          1.745          11.22         -11.75          27.64         -128.8          80.59          69.91
    0.7568              -29.94           31.4          84.63          62.19          1.738          11.22         -11.81          27.65         -128.8          80.61          69.94
    0.8013              -29.93           31.4          84.62           62.2          1.731          11.22         -11.87          27.65         -128.7          80.62          69.98
    0.8458              -29.92           31.4          84.62           62.2          1.723          11.23         -11.94          27.66         -128.7          80.64          70.01
    0.8903              -29.91           31.4          84.62           62.2          1.714          11.23         -12.01          27.66         -128.6          80.67          70.06
    0.9348               -29.9           31.4          84.62           62.2          1.705          11.23         -12.09          27.67         -128.5          80.69           70.1
    0.9793              -29.89           31.4          84.61           62.2          1.694          11.23         -12.18          27.68         -128.4          80.72          70.15
     1.024              -29.88           31.4          84.61          62.21          1.682          11.24         -12.28          27.68         -128.4          80.75          70.21
     1.068              -29.86          31.41           84.6          62.21          1.669          11.24         -12.39          27.69         -128.3          80.78          70.27
     1.113              -29.84          31.41           84.6          62.21          1.655          11.24         -12.51           27.7         -128.1          80.81          70.34
     1.157              -29.83          31.41          84.59          62.22          1.638          11.25         -12.65          27.71         -128.0          80.85          70.42
     1.202              -29.81          31.41          84.59          62.22           1.62          11.25          -12.8          27.72         -127.9           80.9          70.51
     1.246              -29.78          31.42          84.58          62.23          1.599          11.26         -12.98          27.74         -127.7          80.95          70.61
     1.291              -29.76          31.42          84.57          62.23          1.576          11.27         -13.17          27.75         -127.5          81.01          70.73
     1.335              -29.73          31.42          84.56          62.24          1.549          11.27          -13.4          27.77         -127.3          81.08          70.86
      1.38              -29.69          31.43          84.55          62.24          1.518          11.28         -13.66          27.79         -127.1          81.15           71.0
     1.425              -29.65          31.43          84.54          62.25          1.482          11.29         -13.96          27.81         -126.8          81.24          71.18
     1.469               -29.6          31.44          84.53          62.26          1.441           11.3          -14.3          27.84         -126.5          81.35          71.38
     1.514              -29.55          31.44          84.51          62.27          1.392          11.31         -14.71          27.87         -126.2          81.47          71.61
     1.558              -29.49          31.45          84.49          62.28          1.335          11.33         -15.19           27.9         -125.7          81.61          71.89
     1.603              -29.41          31.46          84.47           62.3          1.267          11.35         -15.76          27.94         -125.2          81.78          72.22
     1.647              -29.32          31.47          84.44          62.32          1.186          11.37         -16.44           28.0         -124.6          81.98          72.61
     1.692              -29.21          31.49           84.4          62.34          1.087          11.39         -17.27          28.06         -123.8          82.22          73.08
     1.736              -29.07           31.5          84.36          62.37          0.967          11.43         -18.27          28.13         -122.9          82.52          73.67
     1.781              -28.91          31.52          84.31           62.4         0.8186          11.46         -19.52          28.23         -121.8          82.89          74.38
     1.825               -28.7          31.55          84.25          62.44         0.6334          11.51         -21.07          28.34         -120.4          83.35          75.28
      1.87              -28.44          31.58          84.17          62.49         0.4002          11.57         -23.03          28.49         -118.6          83.93           76.4
